<?xml version="1.0" standalone="no"?>
<svg xmlns="http://www.w3.org/2000/svg" viewBox="0 0 147 49" width="147" height="49"><g fill="#f1333f" color="#f1333f" transform="translate(51.032 0) scale(0.8301887) "><svg width="53.0" height="25.0" x="0.0" y="0.0" viewBox="0 0 53 25"><path fill="currentColor" fill-rule="nonzero" d="M28.26 5.35c.6-2 1.76-3.33 3.22-4.11C33.11.37 35.11.21 37.11.63c5.74 1.21 7.47 4.76 9.63 9.22l.27.56c1.09 2.24 2.47 5.14 3.54 7.67 1.09 2.57 1.83 4.77 1.58 5.53-.06.18-.14.34-.23.47-.2.28-.47.48-.81.57-.32.09-.69.07-1.09-.06-.3-.1-.62-.26-.97-.5-.29-.2-.64-.53-1.03-.95-.26.24-.54.41-.83.53-.72.29-1.48.22-2.26-.11-.73-.32-1.48-.87-2.2-1.58l-.24-.24c-.02.02-.04.03-.07.04-2.71 1.23-4.66-.14-6.09-2.27-.24.13-.52.21-.81.25-.43.05-.9-.03-1.26-.24-2.02-1.2-3.78-3.56-4.91-6.21-1.12-2.64-1.62-5.57-1.1-7.91.03-.02.03-.03.03-.05zM14.55 2.92a.22.22 0 0 1 .18.4c-.53.24-1.06.55-1.58.92-.5.35-.98.75-1.42 1.19-.08.09-.22.09-.31 0-.09-.08-.09-.22 0-.31.45-.46.95-.88 1.47-1.24.54-.38 1.1-.7 1.66-.96zm23.39.4c-.11-.05-.16-.18-.11-.29.05-.11.18-.16.29-.11.55.25 1.11.58 1.65.95.52.37 1.02.78 1.47 1.24.08.09.08.22 0 .31a.23.23 0 0 1-.31 0c-.44-.44-.92-.84-1.42-1.19a9.66 9.66 0 0 0-1.57-.91zM14.77 13.74c.07-.18.27-.26.45-.19s.26.27.19.45c-.84 2.08-2.54 5.08-4.43 7.21 2.29.96 3.98-.36 5.23-2.32.02-.05.04-.09.08-.13.35-.57.67-1.19.96-1.82.63-1.4 1.11-2.86 1.48-3.98.09-.28.18-.54.26-.77a.35.35 0 0 1 .44-.22c.18.06.28.26.22.44-.08.23-.16.49-.25.77-.37 1.13-.86 2.62-1.51 4.05-.26.58-.55 1.16-.87 1.7.14.07.32.12.51.14.3.03.61-.01.84-.15 1.89-1.12 3.55-3.36 4.62-5.88 1.07-2.52 1.54-5.29 1.06-7.49-.54-1.8-1.58-3.01-2.88-3.7-1.48-.79-3.32-.93-5.16-.54-5.41 1.13-7.07 4.55-9.15 8.84-.17.35-.21.44-.27.56-1.09 2.25-2.48 5.15-3.53 7.63-1.03 2.44-1.75 4.47-1.56 5.05.04.11.08.21.14.29.1.15.25.25.42.3.19.05.43.04.7-.05.24-.08.5-.21.78-.41.74-.52 2.02-2.04 3.24-3.71 1.27-1.74 2.47-3.64 2.94-4.77a.346.346 0 0 1 .64.26c-.49 1.18-1.72 3.13-3.02 4.91-.64.88-1.3 1.72-1.9 2.41.2.18.41.31.62.4.53.21 1.12.15 1.72-.11.65-.28 1.33-.79 1.99-1.43 2.11-2.04 4.08-5.45 5-7.74zm-4.27 8l-.24.24c-.72.7-1.47 1.26-2.2 1.58-.78.33-1.54.4-2.26.11-.29-.12-.56-.29-.83-.53-.39.42-.74.75-1.03.95-.34.24-.66.4-.97.5-.41.13-.77.15-1.09.06a1.43 1.43 0 0 1-.81-.57c-.1-.14-.18-.3-.23-.47-.25-.76.49-2.96 1.58-5.53 1.07-2.53 2.45-5.43 3.54-7.67l.27-.56c2.16-4.46 3.89-8.01 9.63-9.22 1.99-.42 3.99-.26 5.63.61 1.46.78 2.62 2.12 3.22 4.11.01.02.01.03.01.05.51 2.34.02 5.27-1.1 7.91-1.12 2.64-2.89 5.01-4.91 6.21-.36.21-.83.29-1.26.24a2.02 2.02 0 0 1-.81-.25c-1.42 2.13-3.38 3.49-6.09 2.27-.01-.01-.03-.02-.05-.04zm37.03.88c-.6-.69-1.26-1.53-1.9-2.41-1.3-1.78-2.53-3.73-3.02-4.91-.07-.18.01-.38.19-.45s.38.01.45.19c.47 1.13 1.67 3.03 2.94 4.77 1.22 1.67 2.5 3.19 3.24 3.71.28.2.54.33.78.41.27.09.51.1.7.05a.75.75 0 0 0 .42-.3.87.87 0 0 0 .14-.29c.19-.58-.53-2.61-1.56-5.05-1.05-2.48-2.43-5.38-3.53-7.63-.06-.12-.1-.21-.27-.56-2.08-4.29-3.74-7.71-9.15-8.84-1.84-.39-3.68-.25-5.16.54-1.3.69-2.34 1.9-2.88 3.7-.48 2.19-.01 4.97 1.06 7.49 1.07 2.52 2.73 4.76 4.62 5.88.23.14.54.18.84.15.19-.02.36-.07.51-.14-.32-.54-.61-1.11-.87-1.7-.65-1.43-1.13-2.91-1.51-4.05-.09-.28-.18-.54-.25-.77a.35.35 0 0 1 .22-.44c.18-.06.38.04.44.22.08.23.16.49.26.77.37 1.12.85 2.58 1.48 3.98.29.63.6 1.25.96 1.82.04.04.07.08.08.13 1.25 1.96 2.94 3.27 5.23 2.32-1.89-2.13-3.58-5.12-4.43-7.21-.07-.18.01-.38.19-.45s.38.01.45.19c.93 2.29 2.9 5.69 5 7.74.67.65 1.34 1.15 1.99 1.43.61.26 1.19.32 1.72.11.22-.09.42-.22.62-.4z"></path></svg></g><path fill="#353434" fill-rule="nonzero" d="M2.23 15.70L2.23 15.70L2.23 1.54L0.29 1.27Q0.14 0.84 0.29 0.41L0.29 0.41L3.58 0.48L13.27 0.48L13.30 6.05Q12.77 6.14 12.41 6.05L12.41 6.05L11.28 1.70L4.80 1.70L4.80 8.90L8.64 8.83L9.19 6.48Q9.55 6.38 10.08 6.48L10.08 6.48Q9.98 7.82 9.98 9.58L9.98 9.58Q9.98 11.18 10.06 12.70L10.06 12.70Q9.62 12.84 9.19 12.70L9.19 12.70L8.66 10.20L4.80 10.13L4.80 18.36L12 18.36L13.13 14.02Q13.49 13.92 14.02 14.02L14.02 14.02L13.99 19.58L3.58 19.58L0.14 19.66Q0 19.22 0.14 18.79L0.14 18.79L2.14 18.53Q2.23 17.30 2.23 15.70ZM18.58 16.39L18.58 16.39Q18.58 17.64 19.03 18.16Q19.49 18.67 20.47 18.67L20.47 18.67Q21.19 18.67 22.07 18.23Q22.94 17.78 23.69 16.94L23.69 16.94L23.69 13.20Q21.22 13.34 19.90 14.08Q18.58 14.81 18.58 16.39ZM23.69 12.34L23.69 12.34L23.69 11.11Q23.69 9.07 23.22 8.15Q22.75 7.22 21.67 7.22L21.67 7.22Q20.57 7.22 19.90 7.93Q19.22 8.64 18.98 10.34L18.98 10.34Q18.22 10.51 17.86 10.51L17.86 10.51Q16.92 10.51 16.75 9.84L16.75 9.84Q16.75 8.21 18.17 7.25Q19.58 6.29 21.70 6.29L21.70 6.29Q24.02 6.29 25.00 7.24Q25.97 8.18 25.97 10.63L25.97 10.63L25.97 17.40Q25.97 18 26.04 18.43L26.04 18.43L27.94 18.67Q28.03 19.03 27.94 19.58L27.94 19.58Q26.23 19.66 24.31 19.92L24.31 19.92Q24.12 19.73 24.07 19.44L24.07 19.44L23.95 17.78Q21.96 20.06 19.51 20.06L19.51 20.06Q18 20.06 17.15 19.20Q16.30 18.34 16.30 16.87L16.30 16.87Q16.30 14.66 18.30 13.54Q20.30 12.41 23.69 12.34ZM32.71 3.89L32.71 3.89L32.71 7.32L36.10 7.32Q36.14 7.61 36.14 7.75L36.14 7.75Q36.14 7.97 36.10 8.26L36.10 8.26L32.71 8.76L32.71 15.36Q32.71 17.14 33.04 17.87Q33.36 18.60 34.06 18.60L34.06 18.60Q34.68 18.60 36 18.10L36 18.10Q36.24 18.31 36.34 18.91L36.34 18.91Q35.62 19.34 35.24 19.55Q34.87 19.75 34.31 19.91Q33.74 20.06 33.12 20.06L33.12 20.06Q31.92 20.06 31.16 19.14Q30.41 18.22 30.41 16.32L30.41 16.32L30.41 8.47L28.73 8.26Q28.68 8.02 28.68 7.85L28.68 7.85Q28.68 7.66 28.73 7.32L28.73 7.32Q29.40 7.20 29.89 6.90Q30.38 6.60 30.72 6.06Q31.06 5.52 31.24 5.10Q31.42 4.68 31.68 3.89L31.68 3.89Q31.90 3.82 32.21 3.82L32.21 3.82Q32.50 3.82 32.71 3.89ZM45.50 11.30L45.50 11.30L38.38 11.30Q38.16 10.58 38.38 10.10L38.38 10.10L45.50 10.10Q45.70 10.66 45.50 11.30ZM50.40 16.39L50.40 16.39Q50.40 17.64 50.86 18.16Q51.31 18.67 52.30 18.67L52.30 18.67Q53.02 18.67 53.89 18.23Q54.77 17.78 55.51 16.94L55.51 16.94L55.51 13.20Q53.04 13.34 51.72 14.08Q50.40 14.81 50.40 16.39ZM55.51 12.34L55.51 12.34L55.51 11.11Q55.51 9.07 55.04 8.15Q54.58 7.22 53.50 7.22L53.50 7.22Q52.39 7.22 51.72 7.93Q51.05 8.64 50.81 10.34L50.81 10.34Q50.04 10.51 49.68 10.51L49.68 10.51Q48.74 10.51 48.58 9.84L48.58 9.84Q48.58 8.21 49.99 7.25Q51.41 6.29 53.52 6.29L53.52 6.29Q55.85 6.29 56.82 7.24Q57.79 8.18 57.79 10.63L57.79 10.63L57.79 17.40Q57.79 18 57.86 18.43L57.86 18.43L59.76 18.67Q59.86 19.03 59.76 19.58L59.76 19.58Q58.06 19.66 56.14 19.92L56.14 19.92Q55.94 19.73 55.90 19.44L55.90 19.44L55.78 17.78Q53.78 20.06 51.34 20.06L51.34 20.06Q49.82 20.06 48.97 19.20Q48.12 18.34 48.12 16.87L48.12 16.87Q48.12 14.66 50.12 13.54Q52.13 12.41 55.51 12.34ZM64.54 3.89L64.54 3.89L64.54 7.32L67.92 7.32Q67.97 7.61 67.97 7.75L67.97 7.75Q67.97 7.97 67.92 8.26L67.92 8.26L64.54 8.76L64.54 15.36Q64.54 17.14 64.86 17.87Q65.18 18.60 65.88 18.60L65.88 18.60Q66.50 18.60 67.82 18.10L67.82 18.10Q68.06 18.31 68.16 18.91L68.16 18.91Q67.44 19.34 67.07 19.55Q66.70 19.75 66.13 19.91Q65.57 20.06 64.94 20.06L64.94 20.06Q63.74 20.06 62.99 19.14Q62.23 18.22 62.23 16.32L62.23 16.32L62.23 8.47L60.55 8.26Q60.50 8.02 60.50 7.85L60.50 7.85Q60.50 7.66 60.55 7.32L60.55 7.32Q61.22 7.20 61.72 6.90Q62.21 6.60 62.54 6.06Q62.88 5.52 63.06 5.10Q63.24 4.68 63.50 3.89L63.50 3.89Q63.72 3.82 64.03 3.82L64.03 3.82Q64.32 3.82 64.54 3.89ZM77.33 11.30L77.33 11.30L70.20 11.30Q69.98 10.58 70.20 10.10L70.20 10.10L77.33 10.10Q77.52 10.66 77.33 11.30ZM81.43 15.41L81.43 4.01Q81.43 2.42 81.36 1.66L81.36 1.66L79.46 1.42Q79.37 1.06 79.46 0.50L79.46 0.50Q81.07 0.38 83.57 0L83.57 0Q83.78 0.24 83.81 0.48L83.81 0.48Q83.69 1.10 83.69 4.37L83.69 4.37L83.69 8.90Q85.46 6.46 87.96 6.46L87.96 6.46Q89.45 6.46 90.50 7.20Q91.56 7.94 91.56 9.74L91.56 9.74L91.56 18.36L93.50 18.72Q93.60 19.10 93.50 19.68L93.50 19.68Q91.99 19.61 90.43 19.61L90.43 19.61Q89.33 19.61 87.31 19.66L87.31 19.66Q87.17 19.20 87.31 18.72L87.31 18.72L89.21 18.46Q89.30 17.14 89.30 15.41L89.30 15.41L89.30 10.94Q89.30 9.26 88.88 8.52Q88.46 7.78 87.36 7.78L87.36 7.78Q86.45 7.78 85.45 8.45Q84.46 9.12 83.69 10.39L83.69 10.39L83.69 18.36L85.63 18.72Q85.73 19.10 85.63 19.68L85.63 19.68Q84.12 19.61 82.56 19.61L82.56 19.61Q81.46 19.61 79.44 19.66L79.44 19.66Q79.30 19.20 79.44 18.72L79.44 18.72L81.34 18.46Q81.43 17.14 81.43 15.41L81.43 15.41ZM94.92 13.20L94.92 13.20Q94.92 11.76 95.34 10.50Q95.76 9.24 96.55 8.30Q97.34 7.37 98.46 6.83Q99.58 6.29 100.97 6.29L100.97 6.29Q102.34 6.29 103.46 6.83Q104.59 7.37 105.40 8.30Q106.20 9.24 106.63 10.50Q107.06 11.76 107.06 13.20L107.06 13.20Q107.06 14.69 106.62 15.94Q106.18 17.18 105.37 18.11Q104.57 19.03 103.44 19.55Q102.31 20.06 100.97 20.06L100.97 20.06Q99.55 20.06 98.44 19.56Q97.32 19.06 96.54 18.14Q95.76 17.23 95.34 15.97Q94.92 14.71 94.92 13.20ZM98.42 8.78L98.42 8.78Q97.39 10.25 97.39 13.20L97.39 13.20Q97.39 14.66 97.67 15.77Q97.94 16.87 98.42 17.60Q98.90 18.34 99.55 18.70Q100.20 19.06 100.97 19.06L100.97 19.06Q101.71 19.06 102.38 18.70Q103.06 18.34 103.54 17.60Q104.02 16.87 104.30 15.77Q104.59 14.66 104.59 13.20L104.59 13.20Q104.59 11.74 104.30 10.62Q104.02 9.50 103.52 8.77Q103.03 8.04 102.37 7.67Q101.71 7.30 100.97 7.30L100.97 7.30Q99.48 7.30 98.42 8.78ZM126.62 15.41L126.62 11.02Q126.62 7.68 124.49 7.68L124.49 7.68Q122.66 7.68 121.03 10.20L121.03 10.20L121.03 18.36L122.98 18.72Q123.07 19.10 122.98 19.68L122.98 19.68Q121.46 19.61 119.90 19.61L119.90 19.61Q118.80 19.61 116.78 19.66L116.78 19.66Q116.64 19.20 116.78 18.72L116.78 18.72L118.68 18.46Q118.78 17.14 118.78 15.41L118.78 15.41L118.78 11.02Q118.78 7.68 116.64 7.68L116.64 7.68Q115.56 7.68 114.74 8.34Q113.93 9 113.06 10.39L113.06 10.39L113.06 18.36L115.01 18.72Q115.10 19.10 115.01 19.68L115.01 19.68Q113.50 19.61 111.94 19.61L111.94 19.61Q110.83 19.61 108.82 19.66L108.82 19.66Q108.67 19.20 108.82 18.72L108.82 18.72L110.71 18.46Q110.81 17.14 110.81 15.41L110.81 15.41L110.81 8.83Q110.81 8.35 110.74 7.94L110.74 7.94L108.84 7.70Q108.74 7.34 108.84 6.79L108.84 6.79Q110.45 6.67 112.94 6.29L112.94 6.29Q113.16 6.53 113.18 6.77L113.18 6.77Q113.06 7.39 113.06 8.90L113.06 8.90Q114.96 6.29 117.34 6.29L117.34 6.29Q118.58 6.29 119.62 6.92Q120.65 7.56 120.94 8.88L120.94 8.88Q122.86 6.29 125.18 6.29L125.18 6.29Q126.65 6.29 127.76 7.15Q128.88 8.02 128.88 9.82L128.88 9.82L128.88 18.36L130.82 18.72Q130.92 19.10 130.82 19.68L130.82 19.68Q129.31 19.61 127.75 19.61L127.75 19.61Q126.65 19.61 124.63 19.66L124.63 19.66Q124.49 19.20 124.63 18.72L124.63 18.72L126.53 18.46Q126.62 17.14 126.62 15.41L126.62 15.41ZM134.35 15.70L134.35 15.70L134.35 1.54L132.41 1.27Q132.26 0.84 132.41 0.41L132.41 0.41L135.70 0.48L145.39 0.48L145.42 6.05Q144.89 6.14 144.53 6.05L144.53 6.05L143.40 1.70L136.92 1.70L136.92 8.90L140.76 8.83L141.31 6.48Q141.67 6.38 142.20 6.48L142.20 6.48Q142.10 7.82 142.10 9.58L142.10 9.58Q142.10 11.18 142.18 12.70L142.18 12.70Q141.74 12.84 141.31 12.70L141.31 12.70L140.78 10.20L136.92 10.13L136.92 18.36L144.12 18.36L145.25 14.02Q145.61 13.92 146.14 14.02L146.14 14.02L146.11 19.58L135.70 19.58L132.26 19.66Q132.12 19.22 132.26 18.79L132.26 18.79L134.26 18.53Q134.35 17.30 134.35 15.70Z" transform="translate(0, 28.755)"></path></svg>